<svg width="34" height="35" viewBox="0 0 34 35" fill="none" xmlns="http://www.w3.org/2000/svg">
<path d="M25.8942 6.95483C24.8066 6.95483 23.9175 7.8413 23.9175 8.92581C23.9175 10.0103 24.8066 10.8968 25.8942 10.8968C26.9819 10.8968 27.8709 10.0103 27.8709 8.92581C27.8709 7.8413 26.9913 6.95483 25.8942 6.95483Z" fill="white"/>
<path d="M17.1173 9.48267C12.5398 9.48267 8.82288 13.1983 8.82288 17.7532C8.82288 22.3176 12.5492 26.0238 17.1173 26.0238C21.6949 26.0238 25.4118 22.3082 25.4118 17.7532C25.4118 13.1983 21.6949 9.48267 17.1173 9.48267ZM17.1173 23.0532C14.1854 23.0532 11.8021 20.6767 11.8021 17.7532C11.8021 14.8298 14.1854 12.4533 17.1173 12.4533C20.0493 12.4533 22.4326 14.8298 22.4326 17.7532C22.4326 20.6767 20.0493 23.0532 17.1173 23.0532Z" fill="white"/>
<path d="M23.7 34.5587H10.251C4.67096 34.5587 0.131226 30.032 0.131226 24.468V11.0484C0.131226 5.48441 4.67096 0.957764 10.251 0.957764H23.7C29.2801 0.957764 33.8198 5.48441 33.8198 11.0484V24.4586C33.8293 30.032 29.2895 34.5587 23.7 34.5587ZM10.251 4.11699C6.42064 4.11699 3.29958 7.22906 3.29958 11.0484V24.4586C3.29958 28.278 6.42064 31.39 10.251 31.39H23.7C27.5304 31.39 30.6515 28.278 30.6515 24.4586V11.0484C30.6515 7.22906 27.5304 4.11699 23.7 4.11699H10.251Z" fill="white"/>
</svg>
