<svg width="34" height="28" viewBox="0 0 34 28" fill="none" xmlns="http://www.w3.org/2000/svg">
<path d="M33.3616 2.4182C33.0565 4.48368 32.7113 6.91743 32.3259 9.35118C31.507 14.5789 30.6639 19.8067 29.8209 25.0344C29.5158 26.9478 28.6808 27.5082 26.802 27.0359C26.1517 26.8758 25.4692 26.6516 24.9152 26.2833C21.9205 24.2819 18.9418 22.2644 16.0032 20.183C14.5178 19.1342 14.566 18.2696 15.8827 17.0367C18.7169 14.3868 21.5271 11.6969 24.3372 9.01494C24.6824 8.6867 24.9554 8.27841 25.1963 7.86211C25.3087 7.66997 25.2605 7.38977 25.2846 7.1496C25.0437 7.14159 24.7707 7.04552 24.578 7.13359C23.9116 7.44581 23.2452 7.76604 22.635 8.16633C18.7892 10.7282 14.9514 13.306 11.1216 15.8999C9.84503 16.7645 8.48815 16.9246 7.059 16.5003C5.26856 15.9639 3.47812 15.4035 1.7198 14.7631C1.30229 14.611 0.796474 14.1786 0.716185 13.7944C0.651954 13.4741 1.09354 12.9698 1.42273 12.6736C1.74388 12.3854 2.20153 12.2252 2.61903 12.0491C11.772 8.28641 20.9169 4.51571 30.0698 0.753005C30.5355 0.560868 31.0333 0.400753 31.531 0.344712C32.8157 0.192603 33.3937 0.761011 33.3616 2.4182Z" fill="white"/>
</svg>
