<svg width="34" height="35" viewBox="0 0 34 35" fill="none" xmlns="http://www.w3.org/2000/svg">
<path d="M33.9157 16.1924C33.1216 7.65948 25.8999 0.96167 17.1368 0.96167C8.38298 0.96167 1.16132 7.65948 0.367219 16.1924H0.29248V19.3224H0.367219C1.16132 27.8554 8.38298 34.5532 17.1368 34.5532C25.8999 34.5532 33.1216 27.8554 33.9063 19.3224H33.9811V16.1924H33.9157ZM30.758 16.1924H24.4051C24.2463 11.9818 23.4522 7.87373 22.0415 4.99526C26.7221 6.79314 30.1694 11.0689 30.758 16.1924ZM17.1368 31.4325C15.8102 31.4325 13.3064 27.1753 13.0075 19.3224H21.2754C20.9765 27.1753 18.4634 31.4325 17.1368 31.4325ZM13.0075 16.1924C13.3064 8.34882 15.8102 4.08235 17.1368 4.08235C18.4634 4.08235 20.9672 8.33951 21.2661 16.1924H13.0075ZM12.232 4.99526C10.8307 7.88305 10.0272 11.9818 9.86841 16.1924H3.5156C4.10417 11.0689 7.5515 6.79314 12.232 4.99526ZM3.5156 19.3224H9.86841C10.0272 23.533 10.8213 27.6411 12.232 30.5196C7.5515 28.731 4.10417 24.4552 3.5156 19.3224ZM22.0509 30.5196C23.4522 27.6318 24.2557 23.533 24.4145 19.3224H30.7673C30.1694 24.4552 26.7221 28.731 22.0509 30.5196Z" fill="white"/>
</svg>
