<svg width="134" height="41" viewBox="0 0 134 41" fill="none" xmlns="http://www.w3.org/2000/svg">
<path d="M128.427 0.940674H5.9288C3.03583 0.940674 0.679626 3.29937 0.679626 6.20319V35.6782C0.679626 38.5785 3.03583 40.9407 5.9288 40.9407H128.43C131.323 40.9407 133.68 38.582 133.68 35.6782V6.20319C133.676 3.29937 131.323 0.940674 128.427 0.940674ZM132.195 6.20319V35.6782C132.195 37.7608 130.504 39.4556 128.427 39.4556H5.9288C3.85144 39.4556 2.16097 37.7608 2.16097 35.6782V6.20319C2.16097 4.12055 3.85144 2.42578 5.9288 2.42578H128.43C130.504 2.42578 132.195 4.12055 132.195 6.20319Z" fill="white"/>
<path d="M30.052 20.6245C30.0241 17.4097 32.6766 15.8477 32.7916 15.7743C31.2859 13.5834 28.9576 13.2794 28.142 13.2514C26.1901 13.0452 24.2905 14.429 23.2971 14.429C22.2863 14.429 20.7457 13.2794 19.0971 13.3073C16.9744 13.3423 14.9772 14.5723 13.8932 16.4942C11.6451 20.4009 13.3216 26.1491 15.4791 29.308C16.5631 30.8525 17.8179 32.5857 19.4735 32.5228C21.0873 32.4599 21.6938 31.4885 23.6387 31.4885C25.5731 31.4885 26.1378 32.5228 27.8213 32.4844C29.5606 32.4564 30.6446 30.9294 31.6902 29.3674C32.9345 27.5993 33.4364 25.8486 33.4539 25.7577C33.4086 25.7438 30.0869 24.4683 30.052 20.6245Z" fill="white"/>
<path d="M26.8697 11.1757C27.7376 10.089 28.3302 8.60734 28.1698 7.09778C26.915 7.15019 25.3396 7.96787 24.4334 9.03715C23.6352 9.98063 22.9206 11.5147 23.0984 12.9613C24.517 13.0731 25.967 12.245 26.8697 11.1757Z" fill="white"/>
<path d="M53.4467 32.299H51.1881L49.9508 28.4028H45.6497L44.475 32.299H42.2792L46.535 19.0344H49.17L53.4467 32.299ZM49.5883 26.7675L48.4694 23.3115C48.3544 22.9516 48.1279 22.1269 47.8072 20.8166H47.7619C47.6259 21.3826 47.4203 22.2178 47.1345 23.3115L46.0331 26.7675H49.5883V26.7675Z" fill="white"/>
<path d="M64.3843 27.4034C64.3843 29.0283 63.9451 30.3142 63.0598 31.2542C62.2721 32.0998 61.2857 32.5122 60.1215 32.5122C58.8597 32.5122 57.9535 32.0649 57.3993 31.1564V36.1778H55.2766V25.8764C55.2766 24.8525 55.2488 23.8112 55.1965 22.7349H57.0612L57.1762 24.2515H57.2111C57.9187 23.1123 58.9922 22.5358 60.4282 22.5358C61.5575 22.5358 62.4882 22.983 63.241 23.8741C64.0078 24.7722 64.3843 25.9393 64.3843 27.4034ZM62.2267 27.4768C62.2267 26.5438 62.0211 25.7785 61.5993 25.1775C61.1427 24.5485 60.5258 24.234 59.7555 24.234C59.2362 24.234 58.7621 24.4122 58.3299 24.7547C57.9082 25.1041 57.6224 25.5549 57.4969 26.121C57.4342 26.3831 57.3993 26.5962 57.3993 26.7674V28.3644C57.3993 29.0562 57.6154 29.6468 58.0337 30.1255C58.4554 30.6008 59.0096 30.8454 59.6893 30.8454C60.4875 30.8454 61.1044 30.5309 61.554 29.9194C62.0037 29.2974 62.2267 28.4902 62.2267 27.4768Z" fill="white"/>
<path d="M75.3497 27.4034C75.3497 29.0283 74.9105 30.3142 74.0252 31.2542C73.2374 32.0998 72.251 32.5122 71.0869 32.5122C69.8251 32.5122 68.9189 32.0649 68.3647 31.1564V36.1778H66.242V25.8764C66.242 24.8525 66.2141 23.8112 66.1619 22.7349H68.0266L68.1416 24.2515H68.1765C68.884 23.1123 69.9576 22.5358 71.3936 22.5358C72.5229 22.5358 73.4535 22.983 74.2064 23.8741C74.9732 24.7722 75.3497 25.9393 75.3497 27.4034ZM73.1886 27.4768C73.1886 26.5438 72.983 25.7785 72.5613 25.1775C72.1047 24.5485 71.4877 24.234 70.7174 24.234C70.1981 24.234 69.7241 24.4122 69.2919 24.7547C68.8701 25.1041 68.5947 25.5549 68.4588 26.121C68.3961 26.3831 68.3612 26.5962 68.3612 26.7674V28.3644C68.3612 29.0562 68.5773 29.6468 68.9956 30.1255C69.4173 30.6008 69.9715 30.8454 70.6512 30.8454C71.4494 30.8454 72.0768 30.5309 72.5159 29.9194C72.976 29.2974 73.1886 28.4902 73.1886 27.4768Z" fill="white"/>
<path d="M87.6186 28.5811C87.6186 29.7132 87.2248 30.6288 86.444 31.3381C85.5831 32.1104 84.3841 32.4982 82.8435 32.4982C81.4179 32.4982 80.2816 32.2187 79.4207 31.6736L79.9122 29.9054C80.8428 30.454 81.8641 30.7301 82.9759 30.7301C83.7741 30.7301 84.4015 30.5519 84.8407 30.192C85.2868 29.832 85.5134 29.3463 85.5134 28.7453C85.5134 28.2072 85.3252 27.7564 84.9662 27.3895C84.6002 27.0226 83.9902 26.6801 83.1398 26.3656C80.801 25.4955 79.6473 24.2271 79.6473 22.5672C79.6473 21.4805 80.0586 20.5929 80.8742 19.8906C81.6898 19.1987 82.7738 18.8492 84.1262 18.8492C85.3252 18.8492 86.329 19.0554 87.1272 19.4782L86.5904 21.2009C85.8375 20.7956 84.9975 20.5894 84.046 20.5894C83.3036 20.5894 82.711 20.7781 82.2893 21.1381C81.9407 21.47 81.7595 21.8649 81.7595 22.3401C81.7595 22.8608 81.9651 23.3011 82.3695 23.633C82.718 23.9475 83.3628 24.29 84.2969 24.6569C85.4332 25.1146 86.2663 25.6528 86.8065 26.2748C87.3503 26.8933 87.6186 27.6655 87.6186 28.5811Z" fill="white"/>
<path d="M94.642 24.3319H92.3032V28.9759C92.3032 30.1535 92.7145 30.7441 93.5406 30.7441C93.917 30.7441 94.2307 30.7091 94.4816 30.6463L94.5444 32.2641C94.1226 32.4179 93.5754 32.4983 92.8957 32.4983C92.0523 32.4983 91.4074 32.2362 90.9334 31.726C90.4594 31.2158 90.2259 30.3527 90.2259 29.1472V24.3249H88.8386V22.735H90.2259V20.9843L92.3032 20.3553V22.735H94.642V24.3319Z" fill="white"/>
<path d="M105.158 27.4384C105.158 28.9095 104.736 30.1151 103.903 31.0585C103.025 32.03 101.86 32.5122 100.41 32.5122C99.0128 32.5122 97.894 32.0439 97.0609 31.1214C96.2279 30.1954 95.8166 29.0213 95.8166 27.6026C95.8166 26.121 96.2453 24.9085 97.0958 23.965C97.9567 23.0215 99.1104 22.5463 100.564 22.5463C101.962 22.5463 103.091 23.0145 103.941 23.9475C104.757 24.8456 105.158 26.0127 105.158 27.4384ZM102.965 27.4838C102.965 26.6032 102.777 25.8589 102.401 25.2299C101.955 24.4682 101.317 24.0908 100.494 24.0908C99.6437 24.0908 98.9884 24.4682 98.5492 25.2299C98.1623 25.8589 97.9846 26.6207 97.9846 27.5292C97.9846 28.4098 98.1728 29.1646 98.5492 29.7831C99.0058 30.5449 99.6506 30.9223 100.477 30.9223C101.282 30.9223 101.92 30.5344 102.383 29.7621C102.767 29.1192 102.965 28.3644 102.965 27.4838Z" fill="white"/>
<path d="M112.056 24.601C111.85 24.5661 111.627 24.5486 111.383 24.5486C110.64 24.5486 110.058 24.8282 109.654 25.3942C109.305 25.8869 109.124 26.5264 109.124 27.2812V32.3026H107.002V25.7472C107.002 24.643 106.984 23.6366 106.939 22.7385H108.783L108.863 24.5696H108.926C109.149 23.9406 109.497 23.4304 109.982 23.053C110.456 22.7106 110.968 22.5428 111.512 22.5428C111.71 22.5428 111.888 22.5603 112.042 22.5778L112.056 24.601Z" fill="white"/>
<path d="M121.533 27.0645C121.533 27.4419 121.505 27.7634 121.452 28.0255H115.091C115.119 28.9689 115.423 29.6958 116.015 30.1885C116.552 30.6288 117.242 30.8524 118.092 30.8524C119.034 30.8524 119.894 30.6987 120.665 30.4051L120.996 31.8763C120.09 32.2711 119.027 32.4703 117.8 32.4703C116.322 32.4703 115.158 32.03 114.314 31.1599C113.471 30.2898 113.052 29.1122 113.052 27.6481C113.052 26.2119 113.446 25.0063 114.234 24.0454C115.057 23.0215 116.168 22.5114 117.566 22.5114C118.936 22.5114 119.985 23.0215 120.682 24.0454C121.247 24.87 121.533 25.8694 121.533 27.0645ZM119.508 26.5159C119.525 25.8869 119.382 25.3383 119.096 24.8805C118.73 24.2865 118.166 23.993 117.413 23.993C116.723 23.993 116.158 24.2795 115.729 24.8561C115.381 25.3138 115.165 25.8694 115.102 26.5089L119.508 26.5159Z" fill="white"/>
<path d="M48.567 14.2927H47.4551L46.8452 12.3813H44.7329L44.1509 14.2927H43.0773L45.1651 7.77222H46.4548L48.567 14.2927ZM46.6569 11.5706L46.1097 9.86534C46.0574 9.69412 45.9494 9.28178 45.7786 8.63532H45.7612C45.688 8.91487 45.6008 9.31673 45.4475 9.86534L44.9107 11.5706H46.6569V11.5706Z" fill="white"/>
<path d="M53.7987 9.58582L52.0246 14.2927H51.0138L49.2955 9.58582H50.4143L51.2125 12.0738C51.3484 12.4861 51.4635 12.881 51.5541 13.2584H51.582C51.6621 12.9159 51.7806 12.5211 51.9235 12.0738L52.7113 9.58582H53.7987Z" fill="white"/>
<path d="M57.577 14.2926L57.4969 13.7545H57.469C57.1448 14.1843 56.6882 14.4009 56.0992 14.4009C55.2557 14.4009 54.6666 13.8069 54.6666 13.0172C54.6666 11.857 55.6704 11.256 57.4062 11.256V11.1651C57.4062 10.5466 57.0751 10.2391 56.4303 10.2391C55.9632 10.2391 55.5624 10.3545 55.2034 10.5886L54.9873 9.90718C55.416 9.63811 55.9632 9.50183 56.6011 9.50183C57.828 9.50183 58.4449 10.1483 58.4449 11.4517V13.1849C58.4449 13.6601 58.4623 14.0305 58.5181 14.3066L57.577 14.2926ZM57.4341 11.9479C56.2769 11.9479 55.6948 12.2274 55.6948 12.8984C55.6948 13.3911 55.9911 13.6357 56.4129 13.6357C56.9427 13.6357 57.4341 13.2303 57.4341 12.6747V11.9479Z" fill="white"/>
<path d="M60.7663 8.81353C60.4177 8.81353 60.1494 8.54446 60.1494 8.18454C60.1494 7.82462 60.4282 7.56604 60.7837 7.56604C61.1392 7.56604 61.4285 7.82812 61.4181 8.18454C61.4216 8.56543 61.1497 8.81353 60.7663 8.81353ZM60.2644 9.58578H61.3031V14.2822H60.2644V9.58578Z" fill="white"/>
<path d="M63.1573 7.43323H64.196V14.2857H63.1573V7.43323Z" fill="white"/>
<path d="M68.6226 14.2927L68.5425 13.7546H68.5146C68.1904 14.1844 67.7338 14.401 67.1448 14.401C66.3013 14.401 65.7122 13.807 65.7122 13.0173C65.7122 11.8571 66.7161 11.2561 68.4518 11.2561V11.1653C68.4518 10.5468 68.1207 10.2392 67.4759 10.2392C67.0088 10.2392 66.608 10.3546 66.249 10.5887L66.0329 9.8968C66.4616 9.62773 67.0088 9.49146 67.6467 9.49146C68.8736 9.49146 69.4905 10.1379 69.4905 11.4413V13.1745C69.4905 13.6497 69.5079 14.0202 69.5533 14.2962H68.6226V14.2927ZM68.4797 11.948C67.3225 11.948 66.7404 12.2275 66.7404 12.8985C66.7404 13.3912 67.0367 13.6358 67.4585 13.6358C67.9883 13.6358 68.4797 13.2304 68.4797 12.6748V11.948Z" fill="white"/>
<path d="M73.7184 14.401C73.0562 14.401 72.5612 14.1214 72.2406 13.5658H72.2231L72.1604 14.2927H71.2751C71.303 13.9153 71.3099 13.4925 71.3099 13.0277V7.43323H72.3591V10.2811H72.3765C72.6902 9.76048 73.1816 9.4984 73.8718 9.4984C75.0011 9.4984 75.7888 10.4698 75.7888 11.8781C75.7888 13.3317 74.9105 14.401 73.7184 14.401ZM73.5023 10.3161C72.9028 10.3161 72.3556 10.8367 72.3556 11.5636V12.3882C72.3556 13.0347 72.847 13.5658 73.4849 13.5658C74.2656 13.5658 74.7292 12.9299 74.7292 11.913C74.7292 10.9625 74.2482 10.3161 73.5023 10.3161Z" fill="white"/>
<path d="M77.3294 7.43323H78.3681V14.2857H77.3294V7.43323Z" fill="white"/>
<path d="M84.039 12.1926H80.9125C80.9299 13.0802 81.5225 13.5833 82.3904 13.5833C82.8574 13.5833 83.2757 13.503 83.6521 13.3597L83.8125 14.0865C83.3733 14.2857 82.8539 14.3731 82.244 14.3731C80.7766 14.3731 79.9052 13.4471 79.9052 12.0039C79.9052 10.5677 80.7905 9.48096 82.1255 9.48096C83.3175 9.48096 84.0774 10.3685 84.0774 11.7173C84.0808 11.906 84.0739 12.0668 84.039 12.1926ZM83.0875 11.4448C83.0875 10.718 82.7215 10.2043 82.0558 10.2043C81.4563 10.2043 80.9892 10.725 80.9195 11.4448H83.0875Z" fill="white"/>
<path d="M90.3513 14.401C88.9815 14.401 88.0927 13.3772 88.0927 11.9864C88.0927 10.5327 88.9989 9.49841 90.4314 9.49841C91.7838 9.49841 92.69 10.4768 92.69 11.906C92.69 13.3667 91.7594 14.401 90.3513 14.401ZM90.3966 10.2602C89.6437 10.2602 89.1592 10.9695 89.1592 11.948C89.1592 12.9194 89.6507 13.6183 90.3861 13.6183C91.1216 13.6183 91.613 12.8635 91.613 11.92C91.606 10.9695 91.132 10.2602 90.3966 10.2602Z" fill="white"/>
<path d="M98.2878 14.2927H97.2491V11.588C97.2491 10.7529 96.925 10.3405 96.3011 10.3405C95.6841 10.3405 95.2624 10.8717 95.2624 11.4902V14.2822H94.2237V10.9311C94.2237 10.5188 94.2132 10.068 94.1888 9.58576H95.102L95.1474 10.3126H95.1752C95.4541 9.8094 96.0257 9.48792 96.6636 9.48792C97.65 9.48792 98.2948 10.2427 98.2948 11.4727L98.2878 14.2927Z" fill="white"/>
<path d="M105.105 10.3789H103.959V12.6607C103.959 13.2443 104.164 13.5308 104.569 13.5308C104.746 13.5308 104.91 13.5134 105.036 13.4854L105.064 14.2751C104.858 14.3555 104.59 14.3904 104.258 14.3904C103.436 14.3904 102.951 13.9327 102.951 12.7481V10.3789H102.272V9.59618H102.951V8.73307L103.973 8.41858V9.5857H105.119V10.3754" fill="white"/>
<path d="M110.623 14.2927H109.584V11.609C109.584 10.7634 109.26 10.3441 108.636 10.3441C108.099 10.3441 107.598 10.711 107.598 11.4588V14.2892H106.559V7.43677H107.598V10.2567H107.615C107.946 9.74655 108.413 9.49495 109.02 9.49495C110.013 9.49495 110.623 10.2672 110.623 11.4972V14.2927Z" fill="white"/>
<path d="M115.942 12.1926H112.815C112.833 13.0802 113.425 13.5833 114.293 13.5833C114.76 13.5833 115.179 13.503 115.555 13.3597L115.715 14.0865C115.276 14.2857 114.757 14.3731 114.147 14.3731C112.679 14.3731 111.808 13.4471 111.808 12.0039C111.808 10.5677 112.693 9.48096 114.028 9.48096C115.22 9.48096 115.98 10.3685 115.98 11.7173C115.987 11.906 115.98 12.0668 115.942 12.1926ZM114.994 11.4448C114.994 10.718 114.628 10.2043 113.962 10.2043C113.363 10.2043 112.889 10.725 112.826 11.4448H114.994Z" fill="white"/>
</svg>
