<svg width="135" height="41" viewBox="0 0 135 41" fill="none" xmlns="http://www.w3.org/2000/svg">
<path d="M129.391 0.940674H5.96833C3.05009 0.940674 0.679688 3.29937 0.679688 6.20319V35.6782C0.679688 38.5785 3.05009 40.9407 5.96833 40.9407H129.391C132.306 40.9407 134.68 38.582 134.68 35.6782V6.20319C134.676 3.29937 132.306 0.940674 129.391 0.940674ZM133.184 6.20319V35.6782C133.184 37.7608 131.481 39.4556 129.388 39.4556H5.96833C3.87535 39.4556 2.17217 37.7608 2.17217 35.6782V6.20319C2.17217 4.12055 3.87535 2.42578 5.96833 2.42578H129.391C131.484 2.42578 133.184 4.12055 133.184 6.20319Z" fill="white"/>
<path d="M47.4592 11.9409C47.4592 12.7656 47.2134 13.419 46.7218 13.9082C46.1634 14.4883 45.44 14.7818 44.5445 14.7818C43.6876 14.7818 42.9607 14.4883 42.3637 13.8978C41.7667 13.3072 41.4647 12.5769 41.4647 11.7033C41.4647 10.8297 41.7632 10.0994 42.3637 9.50883C42.9607 8.91828 43.6876 8.62476 44.5445 8.62476C44.9694 8.62476 45.3733 8.70862 45.7595 8.87286C46.1458 9.03709 46.4549 9.25724 46.6866 9.5298L46.1669 10.047C45.7736 9.58221 45.2328 9.34809 44.5445 9.34809C43.9194 9.34809 43.3821 9.56474 42.9256 10.0015C42.4691 10.4383 42.2443 11.0044 42.2443 11.7033C42.2443 12.4022 42.4726 12.9683 42.9256 13.405C43.3821 13.8418 43.9194 14.0585 44.5445 14.0585C45.2047 14.0585 45.756 13.8383 46.1985 13.4016C46.4865 13.115 46.6515 12.7167 46.6937 12.2065H44.541V11.4936H47.4101C47.4452 11.6474 47.4592 11.7976 47.4592 11.9409Z" fill="white"/>
<path d="M52.0104 9.47736H49.3134V11.3468H51.747V12.0562H49.3134V13.9257H52.0104V14.649H48.5514V8.75403H52.0104V9.47736Z" fill="white"/>
<path d="M55.2201 14.649H54.4581V9.47736H52.8041V8.75403H56.8742V9.47736H55.2201V14.649Z" fill="white"/>
<path d="M59.8204 14.649V8.75403H60.5825V14.649H59.8204V14.649Z" fill="white"/>
<path d="M63.9607 14.649H63.1987V9.47736H61.5447V8.75403H65.6147V9.47736H63.9607V14.649Z" fill="white"/>
<path d="M73.3195 13.8873C72.7366 14.4848 72.0132 14.7818 71.1458 14.7818C70.2784 14.7818 69.555 14.4848 68.9755 13.8873C68.3926 13.2932 68.1046 12.5629 68.1046 11.7033C68.1046 10.8437 68.3961 10.1134 68.9755 9.51931C69.5585 8.92178 70.2819 8.62476 71.1458 8.62476C72.0061 8.62476 72.7295 8.92527 73.316 9.52281C73.8989 10.1203 74.1939 10.8472 74.1939 11.7033C74.1939 12.5629 73.9025 13.2897 73.3195 13.8873ZM69.5374 13.3911C69.9764 13.8314 70.5137 14.055 71.1458 14.055C71.7779 14.055 72.3187 13.8349 72.7541 13.3911C73.1931 12.9508 73.4143 12.3847 73.4143 11.6998C73.4143 11.0149 73.1931 10.4488 72.7541 10.0085C72.3152 9.56823 71.7779 9.34459 71.1458 9.34459C70.5137 9.34459 69.9764 9.56474 69.5374 10.0085C69.0984 10.4488 68.8807 11.0149 68.8807 11.6998C68.8807 12.3847 69.1019 12.9508 69.5374 13.3911Z" fill="white"/>
<path d="M75.2615 14.649V8.75403H76.1886L79.0681 13.3386H79.0998L79.0681 12.203V8.75403H79.8302V14.649H79.0365L76.0235 9.84078H75.9919L76.0235 10.9764V14.649H75.2615V14.649Z" fill="white"/>
<path d="M67.915 23.2452C65.5937 23.2452 63.7009 25.0029 63.7009 27.4245C63.7009 29.8321 65.5937 31.6037 67.915 31.6037C70.2362 31.6037 72.129 29.8321 72.129 27.4245C72.1326 25.0029 70.2397 23.2452 67.915 23.2452ZM67.915 29.9579C66.6437 29.9579 65.5446 28.9131 65.5446 27.4245C65.5446 25.9219 66.6437 24.891 67.915 24.891C69.1862 24.891 70.2854 25.9184 70.2854 27.4245C70.2854 28.9131 69.1897 29.9579 67.915 29.9579ZM58.7213 23.2452C56.4001 23.2452 54.5073 25.0029 54.5073 27.4245C54.5073 29.8321 56.4001 31.6037 58.7213 31.6037C61.0426 31.6037 62.9354 29.8321 62.9354 27.4245C62.9354 25.0029 61.0426 23.2452 58.7213 23.2452ZM58.7213 29.9579C57.4501 29.9579 56.3509 28.9131 56.3509 27.4245C56.3509 25.9219 57.4501 24.891 58.7213 24.891C59.9926 24.891 61.0917 25.9184 61.0917 27.4245C61.0917 28.9131 59.9926 29.9579 58.7213 29.9579ZM47.7823 24.5276V26.2993H52.0456C51.9191 27.2952 51.5855 28.0255 51.0763 28.5322C50.4547 29.1507 49.4855 29.8286 47.7823 29.8286C45.1591 29.8286 43.1047 27.725 43.1047 25.1112C43.1047 22.5009 45.1556 20.3938 47.7823 20.3938C49.1976 20.3938 50.2335 20.9494 50.9955 21.6588L52.2527 20.4078C51.1887 19.3944 49.77 18.6187 47.7823 18.6187C44.1863 18.6187 41.1663 21.5295 41.1663 25.1077C41.1663 28.6859 44.1898 31.5967 47.7823 31.5967C49.7243 31.5967 51.1852 30.9642 52.33 29.7762C53.5064 28.6055 53.8716 26.9597 53.8716 25.6283C53.8716 25.216 53.84 24.8386 53.7768 24.5206H47.7823V24.5276ZM92.5181 25.9044C92.1669 24.9714 91.1028 23.2452 88.9221 23.2452C86.7588 23.2452 84.9608 24.94 84.9608 27.4245C84.9608 29.7657 86.7413 31.6037 89.1292 31.6037C91.0537 31.6037 92.1669 30.4331 92.6304 29.7517L91.1977 28.8012C90.7201 29.4966 90.0669 29.9579 89.1292 29.9579C88.1916 29.9579 87.5209 29.5316 87.0925 28.6929L92.7077 26.3831L92.5181 25.9044ZM86.7905 27.2987C86.7413 25.6843 88.0477 24.8596 88.9853 24.8596C89.7157 24.8596 90.3373 25.223 90.5445 25.7472L86.7905 27.2987ZM82.2252 31.3521H84.0689V19.0694H82.2252V31.3521ZM79.2016 24.1817H79.1384C78.724 23.6925 77.9304 23.2487 76.926 23.2487C74.826 23.2487 72.9016 25.0832 72.9016 27.4419C72.9016 29.7831 74.826 31.6037 76.926 31.6037C77.9269 31.6037 78.724 31.1599 79.1384 30.6532H79.2016V31.2543C79.2016 32.8547 78.3413 33.7073 76.9577 33.7073C75.8269 33.7073 75.128 32.9001 74.8436 32.2187L73.2352 32.8827C73.6953 33.9904 74.9209 35.3532 76.9577 35.3532C79.1209 35.3532 80.9505 34.0882 80.9505 30.9992V23.5003H79.2016V24.1817ZM77.0876 29.9579C75.8163 29.9579 74.7488 28.8991 74.7488 27.4419C74.7488 25.9708 75.8163 24.8945 77.0876 24.8945C78.3448 24.8945 79.3316 25.9708 79.3316 27.4419C79.3316 28.8956 78.3448 29.9579 77.0876 29.9579ZM101.16 19.0694H96.7462V31.3521H98.5898V26.6976H101.164C103.208 26.6976 105.213 25.2265 105.213 22.8818C105.213 20.5371 103.204 19.0694 101.16 19.0694ZM101.21 24.9889H98.5898V20.7782H101.21C102.586 20.7782 103.369 21.9138 103.369 22.8818C103.369 23.8357 102.586 24.9889 101.21 24.9889ZM112.595 23.2242C111.26 23.2242 109.88 23.8078 109.308 25.1042L110.944 25.7821C111.292 25.1042 111.945 24.8806 112.626 24.8806C113.578 24.8806 114.547 25.4501 114.565 26.46V26.5858C114.231 26.3971 113.518 26.1106 112.644 26.1106C110.881 26.1106 109.086 27.075 109.086 28.8746C109.086 30.517 110.53 31.5758 112.152 31.5758C113.392 31.5758 114.073 31.0236 114.501 30.3737H114.565V31.3207H116.342V26.6207C116.342 24.4403 114.705 23.2242 112.595 23.2242ZM112.373 29.9544C111.769 29.9544 110.926 29.6539 110.926 28.9131C110.926 27.9661 111.973 27.6027 112.879 27.6027C113.69 27.6027 114.069 27.7774 114.561 28.015C114.421 29.1507 113.437 29.9544 112.373 29.9544ZM122.821 23.4933L120.71 28.8187H120.647L118.456 23.4933H116.471L119.758 30.9363L117.883 35.0771H119.804L124.871 23.4933H122.821V23.4933ZM106.228 31.3521H108.071V19.0694H106.228V31.3521Z" fill="white"/>
<path d="M12.0822 8.55135L12.0752 8.54785L12.0717 8.55135C12.0752 8.55135 12.0787 8.55135 12.0822 8.55135Z" fill="white"/>
<path d="M12.0822 8.55135L12.0752 8.54785L12.0717 8.55135C12.0752 8.55135 12.0787 8.55135 12.0822 8.55135Z" fill="white"/>
<path d="M23.2495 22.41L26.3749 25.52L12.7354 33.2321C12.5283 33.3474 12.3281 33.4278 12.142 33.4662L23.2495 22.41Z" fill="white"/>
<path d="M11.1024 32.8721C11.0427 32.6939 11.0146 32.4807 11.0146 32.2466V10.8052C11.0146 10.5711 11.0463 10.3579 11.1024 10.1797L22.505 21.5259L11.1024 32.8721Z" fill="white"/>
<path d="M12.1384 9.58569C12.3245 9.62413 12.5282 9.7045 12.7354 9.82331L26.3749 17.5354L23.2495 20.6454L12.1384 9.58569Z" fill="white"/>
<path d="M23.9939 21.5259L27.4178 18.1189L31.9901 20.7047C32.415 20.9458 32.6819 21.2359 32.7486 21.5259C32.6819 21.8159 32.415 22.106 31.9901 22.3436L27.4143 24.9294L23.9939 21.5259Z" fill="white"/>
</svg>
