<svg width="155" height="66" viewBox="0 0 155 66" fill="none" xmlns="http://www.w3.org/2000/svg">
<path d="M35.9856 4.15347C35.7738 1.80817 34.1266 0.351807 31.6839 0.351807H31.6792C31.4768 0.351807 31.2085 0.356535 30.9026 0.399091C28.8741 0.663883 27.3444 2.05877 26.4737 4.43718C25.8572 6.12523 25.7819 7.75654 25.7725 7.94095L25.7348 9.00484C25.443 9.49187 25.2171 10.0167 25.0618 10.5652C24.6335 12.0831 24.1111 14.5418 24.0263 17.6673L24.0028 18.4854C23.5839 19.0906 23.2168 19.7715 22.9062 20.5186C22.5203 21.4501 22.2143 22.3958 21.9131 23.6204L21.7013 19.223C21.6684 17.5066 20.4117 6.74938 19.3951 3.08484C18.9762 1.5812 17.5972 0.649698 15.7899 0.649698C14.9239 0.649698 13.9826 0.848292 13.2013 1.1982C9.16312 2.99973 9.49728 8.26721 10.335 11.0995L10.6221 12.0736C10.5892 12.3384 10.5704 12.6079 10.5798 12.8774C10.6174 14.6459 11.0128 16.4758 11.8741 19.9086L12.1329 20.9394C11.94 21.4926 11.827 22.0695 11.8035 22.6558C11.7423 24.0886 11.7799 25.5638 11.9117 27.0722C11.7564 27.0344 11.6105 27.0013 11.4646 26.9776C11.3987 26.9682 11.3328 26.9587 11.2622 26.9493C11.0269 26.9162 10.8339 26.8972 10.6457 26.8925H10.6221H10.608H10.5939H10.5563H10.5233H10.5092C10.3821 26.8925 10.2739 26.902 10.1891 26.9067H10.1797H10.1656C10.095 26.9067 9.95381 26.9114 9.78438 26.9351C9.64318 26.954 9.53493 26.9824 9.45492 27.0013H9.45022C9.31843 27.0296 9.10664 27.0722 8.87131 27.1573C8.52303 27.285 8.22652 27.4363 7.95825 27.616L7.92059 27.6396L7.89235 27.6585L7.86411 27.6774L7.82646 27.7058C6.90869 28.4198 6.00033 29.2331 5.58145 30.349C5.28494 31.1387 5.22375 32.0323 5.39789 33.0962C5.31788 33.0915 5.24258 33.0915 5.16257 33.0915C4.40481 33.0915 3.64706 33.2948 2.91284 33.6967C2.17863 34.0987 1.74562 34.6708 1.3644 35.1767L1.23261 35.3517C-0.20288 37.2336 0.554872 39.8863 1.25144 41.7209L1.26085 41.754C1.27026 41.7824 1.27968 41.8013 1.28438 41.8202C1.32674 41.9573 1.37851 42.0944 1.43029 42.2316L1.35028 43.7399C1.27968 45.0308 1.78798 46.5486 2.45631 48.3974C2.63045 48.875 2.82342 49.4141 2.8799 49.641C3.66589 52.9131 5.00254 55.4901 6.85221 57.3106L6.90398 65.1645H30.5449L29.3871 56.7526L29.3447 56.45C30.9073 54.2134 32.0651 51.0501 32.6911 47.2674C33.6606 41.4372 33.2182 34.8316 31.5097 29.5357C31.8015 27.8713 32.2722 25.5355 32.7758 23.0625L32.7946 22.9726C33.0582 21.6723 33.3312 20.3295 33.5759 19.0811C33.6841 18.5232 33.7924 17.9652 33.9006 17.4073C34.0042 16.8635 34.1077 16.3197 34.2066 15.776C34.3054 15.2322 34.4042 14.6932 34.4984 14.1588C34.6678 13.2226 34.8419 12.2107 35.0349 11.0664C35.2044 10.0782 35.3597 9.14197 35.5009 8.28139L35.5291 8.11117C35.6609 7.33098 35.7785 6.61698 35.8821 5.99756C35.9197 5.77532 35.948 5.572 35.9668 5.37341C35.995 5.10861 36.0045 4.85328 35.9998 4.6074C36.0045 4.44663 35.9998 4.29532 35.9856 4.15347ZM35.0114 5.26465C34.9926 5.4396 34.969 5.61928 34.9361 5.82261C34.8231 6.48932 34.6913 7.26005 34.5501 8.11117C34.4089 8.96702 34.2489 9.90325 34.0842 10.8915C33.9148 11.8797 33.7359 12.9153 33.5477 13.9792C33.4535 14.5087 33.3547 15.0478 33.2558 15.5868C33.157 16.1259 33.0535 16.6696 32.9499 17.2134C32.8417 17.7714 32.7334 18.3293 32.6252 18.8825C32.3757 20.1545 32.098 21.5163 31.8251 22.8592C31.2979 25.4551 30.799 27.9139 30.5119 29.5972C32.2392 34.7985 32.6958 41.3095 31.7356 47.0971C31.0908 50.9603 29.9095 54.0763 28.3328 56.1852L28.4269 56.8755L29.4341 64.1857H28.1351C28.1351 64.1857 27.0903 57.0647 27.0903 57.0694L27.0856 57.0741C26.2243 57.6368 25.3253 57.9914 24.5205 58.2231C24.4076 58.2562 24.2946 58.2846 24.1817 58.313C24.2711 58.2799 24.3652 58.2421 24.4546 58.1995C27.5468 56.8046 29.7354 51.6648 30.5072 45.5604C30.5684 45.0639 30.6249 44.5627 30.6673 44.0567C30.6861 43.8345 30.7049 43.6123 30.719 43.39C30.7567 42.8652 30.7802 42.3403 30.799 41.8107C30.799 41.8013 30.799 41.7871 30.799 41.7776C30.9167 37.6734 30.4037 33.4036 29.1282 29.7154C29.3635 28.2874 29.7777 26.1833 30.2343 23.9231C30.2578 23.7954 30.286 23.6725 30.3096 23.5448C30.4131 23.0388 30.5166 22.5282 30.6202 22.0175C30.6955 21.6345 30.7755 21.2515 30.8508 20.8685C31.0061 20.1072 31.1567 19.3507 31.2979 18.6225C31.4062 18.0693 31.5144 17.5113 31.6227 16.9581C31.6321 16.9155 31.6368 16.873 31.6462 16.8304C31.7403 16.3339 31.8345 15.8374 31.9239 15.341C32.0227 14.8019 32.1216 14.2676 32.2157 13.738C32.2628 13.4732 32.3098 13.2084 32.3569 12.9484C32.404 12.6883 32.4463 12.4282 32.4934 12.1729C32.5405 11.8939 32.5875 11.6149 32.6393 11.3407C32.6769 11.1137 32.7146 10.8868 32.757 10.6645C32.8323 10.2153 32.9076 9.77558 32.9782 9.35002C33.0676 8.81098 33.157 8.29558 33.237 7.80382C33.3735 6.9858 33.4959 6.23871 33.6088 5.59091C33.6135 5.55782 33.6182 5.51526 33.6277 5.48216C33.6465 5.37341 33.6606 5.2552 33.6747 5.13226C33.6841 5.05187 33.6888 4.96676 33.6936 4.88165C33.6983 4.79654 33.6983 4.71142 33.6983 4.62631C33.6983 4.59794 33.6936 4.56957 33.6936 4.53647C33.6888 4.47973 33.6889 4.42299 33.6841 4.36625C33.6183 3.61916 33.2747 2.90516 32.2345 2.72548C32.2063 2.72075 32.1875 2.72075 32.1639 2.71602C32.018 2.69238 31.858 2.68293 31.6839 2.68293H31.6792C31.5333 2.68293 31.3732 2.68765 31.2038 2.7113C29.9942 2.86733 29.2553 3.82248 28.8035 4.87692C28.7564 4.9904 28.7093 5.09916 28.667 5.21264C28.6105 5.36868 28.554 5.52944 28.507 5.68548C28.4599 5.84152 28.4175 5.99756 28.3799 6.14887C28.3234 6.37583 28.281 6.59334 28.2434 6.80139C28.2293 6.88178 28.2152 6.9527 28.2057 7.02836C28.1869 7.13711 28.1728 7.24114 28.1634 7.33571C28.1493 7.45865 28.1351 7.57213 28.1257 7.6667C28.1163 7.74235 28.1116 7.81328 28.1069 7.86529C28.1069 7.87002 28.1069 7.87475 28.1069 7.87948C28.1022 7.93149 28.1022 7.97405 28.0975 7.99769C28.0975 8.01187 28.0975 8.02606 28.0975 8.03079C28.1634 8.00715 28.2293 7.98823 28.2999 7.96932C28.3893 7.94568 28.4787 7.92203 28.5681 7.90312C28.7282 7.87002 28.8976 7.84165 29.0623 7.81801C29.1235 7.80855 29.18 7.79909 29.2365 7.79437C29.2553 7.78964 29.2741 7.78964 29.2977 7.78964C29.5612 7.76127 29.8201 7.74235 30.0648 7.74235C30.0884 7.74235 30.1166 7.74235 30.1401 7.74235C30.1637 7.74235 30.1919 7.74235 30.2154 7.74235C30.3049 7.74708 30.3943 7.74708 30.479 7.75181C30.5684 7.75654 30.6578 7.766 30.7379 7.77545V8.24357C30.7331 8.24357 30.7284 8.24357 30.719 8.2483H30.7143C29.0906 8.4658 27.7398 9.61481 27.2974 11.1988C27.1985 11.5487 27.095 11.9507 26.9962 12.4046C26.9726 12.5181 26.9444 12.6363 26.9209 12.7545C26.7232 13.7096 26.5396 14.8587 26.4314 16.1779C26.3937 16.6744 26.3655 17.1898 26.3514 17.7288C26.6008 17.5728 26.9256 17.4546 27.2644 17.36C27.2738 17.3553 27.288 17.3553 27.2974 17.3505C27.3021 17.3505 27.3115 17.3458 27.3162 17.3458C27.4433 17.3127 27.5704 17.2749 27.7021 17.2465C27.8857 17.2087 28.0645 17.1803 28.2481 17.1567C28.474 17.1283 28.6905 17.1094 28.907 17.0952C28.9588 17.0905 29.0106 17.0857 29.0623 17.081C29.1518 17.0763 29.2506 17.0668 29.3353 17.0668V17.6295C29.3212 17.6295 29.2929 17.6295 29.2459 17.6342C29.18 17.639 29.0764 17.6532 28.9447 17.6815C28.8129 17.7099 28.6529 17.7477 28.474 17.8092C28.0834 17.9369 27.7163 18.1118 27.3774 18.3246C27.0573 18.5279 26.7561 18.7643 26.4879 19.0339L26.4832 19.0386C26.0501 19.4736 25.6925 19.9843 25.4289 20.547C25.3818 20.6415 25.3395 20.7361 25.2971 20.8307C25.2783 20.878 25.2547 20.9252 25.2359 20.9678C25.1747 21.1049 25.1183 21.242 25.0571 21.3839C24.9629 21.6156 24.8735 21.8426 24.7888 22.0837C24.737 22.2303 24.6853 22.3769 24.6382 22.5234C24.6099 22.6086 24.5817 22.6984 24.5535 22.7882C24.5346 22.8544 24.5111 22.9206 24.4923 22.9916C24.4499 23.1287 24.4123 23.2705 24.3699 23.4124C24.3511 23.4833 24.3323 23.559 24.3087 23.6299C24.2711 23.7765 24.2287 23.9325 24.1911 24.0886C24.1581 24.2304 24.1205 24.377 24.0875 24.5283C24.0781 24.5614 24.0734 24.5992 24.064 24.6323C24.0122 24.8498 23.9652 25.0721 23.9134 25.3085C23.8851 25.4409 23.8569 25.5733 23.8287 25.7104C23.7957 25.8854 23.7581 26.065 23.7204 26.2495C23.7016 26.3535 23.6781 26.4575 23.6592 26.5663C23.5557 27.1053 23.4521 27.6869 23.3392 28.3347C22.9344 28.642 22.5391 28.9872 22.1578 29.3466C22.1531 29.3513 22.1484 29.356 22.139 29.3655C21.9508 29.5452 21.7672 29.7249 21.5884 29.9045C20.7882 30.7131 20.0964 31.5264 19.654 32.0702C19.3245 32.4768 19.1268 32.7369 19.1221 32.7369L19.0045 32.699L18.5856 32.5666C18.7691 32.2498 18.9527 31.933 19.1268 31.6399C19.574 30.8691 19.927 30.2544 19.927 30.2544L19.3857 19.2939C19.3857 19.2183 19.381 19.1095 19.3716 18.9629C19.3669 18.892 19.3622 18.8116 19.3528 18.7218C19.3433 18.5894 19.3292 18.4381 19.3151 18.2679C19.1739 16.7027 18.8397 13.7286 18.4256 10.7875C18.402 10.6078 18.3738 10.4281 18.3503 10.2484C18.3314 10.116 18.3126 9.98363 18.2938 9.85124C18.2655 9.67155 18.242 9.49187 18.2138 9.31219C18.195 9.1798 18.1761 9.0474 18.1526 8.91973C18.1244 8.74951 18.1008 8.57929 18.0726 8.40906C18.0679 8.37596 18.0632 8.34759 18.0585 8.31449C18.0302 8.13008 18.002 7.9504 17.969 7.77072C17.9079 7.38299 17.842 7.00472 17.7761 6.64063C17.7478 6.4704 17.7149 6.30964 17.6866 6.14887C17.6537 5.95973 17.616 5.77532 17.5831 5.60037C17.569 5.51999 17.5502 5.43488 17.536 5.35449C17.5172 5.25992 17.4984 5.17008 17.4796 5.08024C17.4513 4.93839 17.4231 4.80127 17.3901 4.6736C17.3572 4.53174 17.3289 4.38989 17.296 4.26222C17.2631 4.12983 17.2348 4.00689 17.2019 3.88868C17.1878 3.82721 17.1689 3.77047 17.1548 3.71373C17.136 3.64753 17.1124 3.58133 17.0795 3.52459C16.9524 3.29762 16.7312 3.15104 16.4582 3.06593C16.2559 3.00446 16.0205 2.97609 15.7805 2.97609C15.4181 2.97609 15.0322 3.03756 14.6886 3.1274C14.4815 3.18414 14.2932 3.25034 14.1332 3.32126C12.7071 3.9596 12.2224 5.39232 12.1329 6.80612C12.1188 7.00945 12.1141 7.20804 12.1141 7.41136C12.1188 7.80855 12.1424 8.19628 12.1847 8.55092C12.2035 8.71641 12.2271 8.87245 12.2459 9.02376C12.2506 9.0474 12.2506 9.07104 12.2553 9.09469C12.3024 9.38312 12.3541 9.63846 12.3965 9.85124C12.4247 9.9789 12.4483 10.0877 12.4718 10.1775C12.4906 10.2579 12.5095 10.3194 12.5189 10.3619C12.5283 10.4045 12.5377 10.4281 12.5377 10.4281C12.5424 10.4234 12.5471 10.4234 12.5518 10.4186C12.7071 10.3099 12.8813 10.2011 13.0695 10.1018C13.719 9.75194 14.5568 9.47296 15.5358 9.47296C15.5546 9.47296 15.5734 9.47296 15.5969 9.47296C15.6064 9.47296 15.6158 9.47296 15.6252 9.47296L15.6016 9.75194L15.5781 10.0309C15.1498 10.0309 14.7451 10.1349 14.3874 10.3099C14.3168 10.343 14.2509 10.3808 14.185 10.4234C14.0626 10.499 13.945 10.5794 13.8367 10.6693C13.5025 10.953 13.239 11.3171 13.0742 11.7332C12.9425 12.0641 12.8719 12.433 12.8813 12.816C12.9001 13.5678 12.9942 14.3527 13.1872 15.374C13.286 15.8847 13.4084 16.4521 13.559 17.0999C13.6061 17.2938 13.6531 17.4971 13.7049 17.7099C13.8226 18.2017 13.9544 18.736 14.105 19.327C14.8062 19.0433 15.6817 18.8589 16.3029 18.7549C16.6936 18.6887 16.9854 18.6556 17.0748 18.6461L17.2019 19.3176C17.1783 19.3223 17.1548 19.3223 17.136 19.327C17.1313 19.327 17.1266 19.327 17.1219 19.327C17.0418 19.3412 16.9665 19.3554 16.8912 19.3743C16.8677 19.379 16.8442 19.3838 16.8253 19.3885C16.2276 19.5398 15.6958 19.8377 15.2628 20.2396C15.2534 20.2491 15.2392 20.2585 15.2298 20.268C15.1922 20.3058 15.1545 20.3436 15.1169 20.3862C15.0839 20.424 15.0463 20.4571 15.0133 20.4949C15.0039 20.5091 14.9898 20.5233 14.9804 20.5375C14.4674 21.1333 14.1473 21.8993 14.1097 22.7315C14.1097 22.7362 14.1097 22.7457 14.1097 22.7504V22.7551C14.105 22.8734 14.105 22.9916 14.1003 23.105C14.0956 23.1996 14.0956 23.2942 14.0909 23.3888C14.0861 23.507 14.0861 23.6252 14.0861 23.7434C14.0861 23.838 14.0814 23.9372 14.0814 24.0318C14.0814 24.1453 14.0861 24.2541 14.0861 24.3675C14.0861 24.4668 14.0861 24.5661 14.0909 24.6607C14.0956 24.7695 14.0956 24.8735 14.1003 24.9822C14.105 25.0815 14.105 25.1808 14.1097 25.2754C14.1144 25.3794 14.1191 25.4787 14.1238 25.5827C14.1285 25.682 14.1332 25.7813 14.1379 25.8759C14.1426 25.9799 14.152 26.0745 14.1567 26.1785C14.1615 26.2731 14.1709 26.3677 14.1756 26.4622C14.185 26.5615 14.1944 26.6561 14.1991 26.7554C14.2085 26.8452 14.2132 26.9398 14.2226 27.0296C14.2321 27.1289 14.2415 27.2282 14.2509 27.3275C14.2603 27.4126 14.265 27.4978 14.2744 27.5781C14.2838 27.6727 14.2932 27.7626 14.3074 27.8524C14.3168 27.9375 14.3262 28.0226 14.3356 28.1077C14.345 28.1928 14.3591 28.2732 14.3685 28.3583C14.378 28.4434 14.3921 28.5286 14.4015 28.6137C14.4109 28.6941 14.425 28.7744 14.4344 28.8548C14.4438 28.9352 14.458 29.0203 14.4674 29.1007C14.4815 29.1764 14.4909 29.252 14.505 29.3277C14.5191 29.4033 14.5286 29.4837 14.5427 29.5594C14.5615 29.6634 14.5756 29.7674 14.5945 29.8667C14.5992 29.9093 14.6086 29.9518 14.6133 29.9896C14.6886 30.4105 14.7592 30.7888 14.8298 31.1197L14.6839 31.0204L14.4533 30.8597C14.2415 30.7131 14.0391 30.5949 13.8367 30.4672C13.8179 30.4578 13.799 30.4436 13.7802 30.4341C13.7096 30.3916 13.6437 30.3443 13.5731 30.3017C13.559 30.2923 13.5449 30.2828 13.5308 30.2734C13.5261 30.2734 13.5261 30.2686 13.5261 30.2686C13.4743 30.2403 13.4272 30.2119 13.3755 30.1835C13.2531 30.1126 13.126 30.0464 13.0084 29.9802C12.886 29.914 12.7683 29.8573 12.6507 29.8005C12.6177 29.7816 12.5848 29.7721 12.5471 29.7532C12.293 29.635 12.0482 29.5357 11.8129 29.4553C11.7988 29.4506 11.7894 29.4506 11.7752 29.4459C11.747 29.4364 11.7141 29.427 11.6858 29.4175C11.4646 29.3466 11.2528 29.2898 11.0504 29.2567C11.0363 29.252 11.0175 29.252 11.0034 29.252C10.9893 29.252 10.9798 29.252 10.9657 29.2473C10.8198 29.2236 10.6786 29.2095 10.5468 29.2047C10.5421 29.2047 10.5374 29.2047 10.528 29.2047H10.4998H10.4951H10.4809C10.448 29.2047 10.4151 29.2047 10.3821 29.2095C10.3492 29.2142 10.3162 29.2142 10.2833 29.2189C10.2127 29.2236 10.1421 29.2236 10.0762 29.2284C10.0244 29.2378 9.97735 29.252 9.92558 29.2615C9.82674 29.2804 9.7279 29.304 9.63377 29.3371C9.56317 29.3655 9.49257 29.3939 9.42198 29.427C9.35138 29.4601 9.28549 29.4979 9.2243 29.5404C9.09252 29.6445 8.94662 29.758 8.80071 29.8809C8.69246 29.9755 8.57951 30.07 8.47126 30.1741C8.15121 30.4814 7.85941 30.8171 7.73233 31.1576C7.57231 31.5831 7.5629 32.1316 7.67585 32.7794C7.69468 32.8882 7.71821 32.9969 7.74174 33.1104C7.79352 33.3374 7.85941 33.5738 7.93471 33.8244C7.97236 33.9473 8.01472 34.075 8.05708 34.2027C8.14651 34.4627 8.24534 34.7275 8.35359 35.0065C8.51832 35.4226 8.70658 35.8576 8.91367 36.3068C8.98427 36.4581 9.05487 36.6095 9.13017 36.7655C9.21489 36.7466 9.2949 36.7277 9.37491 36.7088C9.59141 36.6615 9.8032 36.6142 10.015 36.5716C10.0668 36.5622 10.1232 36.5527 10.175 36.5433C10.2597 36.5291 10.3398 36.5149 10.4245 36.5007C10.6127 36.4676 10.801 36.4392 10.9893 36.4156C11.0081 36.4156 11.0222 36.4109 11.041 36.4109C11.314 36.3778 11.5917 36.3589 11.8694 36.3447C11.8929 36.3447 11.9211 36.3447 11.9447 36.3447C11.9964 36.3447 12.0435 36.3399 12.0953 36.3399C12.1424 36.3399 12.1847 36.3399 12.2318 36.3399C12.2553 36.3399 12.2788 36.3399 12.3024 36.3399C12.4577 36.3399 12.6177 36.3447 12.7777 36.3494C12.7919 36.3494 13.0084 36.3589 13.0225 36.3589C13.3002 36.3778 13.5873 36.4061 13.8838 36.4487C13.9073 36.4534 13.9308 36.4534 13.9544 36.4581C13.9779 36.4629 14.0014 36.4629 14.025 36.4676C14.3685 36.5196 14.7215 36.5858 15.1028 36.6709C15.1028 36.6709 14.8721 34.9734 13.9308 33.4745C13.8932 33.413 13.8555 33.3563 13.8179 33.2948L13.9261 33.2712L14.4438 33.1624C14.538 33.257 14.6321 33.3516 14.7215 33.4509C14.8721 33.6164 15.018 33.7913 15.1545 33.971C15.2251 34.0656 15.3004 34.1601 15.3663 34.2594C15.4181 34.3303 15.4652 34.406 15.5169 34.4769C15.5546 34.5337 15.5922 34.5904 15.6299 34.6519C16.4206 35.886 16.8206 37.0634 16.8206 37.0634C17.1266 37.0823 17.4419 37.1249 17.7572 37.1769C18.3597 37.2809 18.9762 37.4369 19.5975 37.6355C19.8611 37.7206 20.1293 37.8105 20.3929 37.9098L27.7492 40.988L27.7163 41.3946L27.688 41.7398L22.6144 39.9572L19.9834 39.0304C19.9646 39.021 19.9411 39.0115 19.9175 39.0068C19.5928 38.8649 19.2539 38.742 18.915 38.6427C18.7409 38.5907 18.5621 38.5434 18.3832 38.4961C18.3785 38.4961 18.3785 38.4961 18.3738 38.4961C18.242 38.463 18.0679 38.4299 17.8561 38.3968C17.8043 38.3873 17.7478 38.3826 17.6914 38.3732C17.6255 38.3637 17.5596 38.3542 17.489 38.3448C17.3854 38.3306 17.2725 38.3164 17.1548 38.3022C17.0795 38.2928 17.0042 38.2833 16.9242 38.2739C16.8536 38.2644 16.783 38.255 16.7124 38.2455C16.5712 38.2266 16.4206 38.2077 16.2747 38.1888C16.1241 38.1698 15.9735 38.1462 15.8182 38.1226C15.6628 38.0989 15.5122 38.0753 15.3569 38.0516C14.7686 37.9523 14.1662 37.8294 13.559 37.7301C13.1072 37.6544 12.6507 37.593 12.2035 37.5693C12.0529 37.5599 11.9023 37.5551 11.7564 37.5551C11.6293 37.5551 11.5023 37.5599 11.3752 37.5646C10.608 37.6119 9.94911 37.7679 9.40315 38.0091C9.25254 38.0753 9.11605 38.1509 8.98427 38.2313C8.87131 38.2975 8.76306 38.3732 8.66422 38.4488C7.95354 38.9973 7.59114 39.7586 7.64291 40.6144C7.66173 40.9691 7.76057 41.3332 7.91589 41.6783L11.1257 41.8864C11.1304 41.7918 11.1399 41.702 11.154 41.6074C11.1634 41.5128 11.1775 41.423 11.1916 41.3284C11.2575 40.9218 11.3564 40.5246 11.507 40.1416C11.5776 39.9525 11.667 39.7728 11.7658 39.5978C11.7988 39.5411 11.827 39.4796 11.86 39.4229H12.6036C12.3165 40.0045 12.18 40.5861 12.1188 41.1109C12.0953 41.319 12.0859 41.5176 12.0859 41.7067C12.0812 42.5484 12.2647 43.13 12.2647 43.13L11.9306 43.1063L11.6576 43.0874L8.78189 42.9077C8.85719 42.9881 8.94191 43.0638 9.02192 43.1347C9.40315 43.4704 9.84086 43.7447 10.3068 43.9149C10.4433 43.9669 10.5798 44.0095 10.7163 44.0426C11.5729 44.2412 12.5142 44.4445 13.1495 44.5343C13.3708 44.5674 13.592 44.5769 13.8179 44.5769C14.0626 44.5769 14.3074 44.5627 14.5474 44.5296C14.6274 44.5201 14.7074 44.5107 14.7874 44.4965C14.7404 44.435 14.698 44.3688 14.6603 44.2979C14.585 44.1655 14.5239 44.0284 14.4768 43.8865C14.4297 43.7494 14.3968 43.6075 14.3732 43.4704C14.3497 43.3333 14.3356 43.2009 14.3309 43.0732C14.3262 43.0118 14.3262 42.9456 14.3262 42.8888C14.3309 42.4065 14.425 42.0519 14.425 42.0519C14.618 42.5673 14.891 43.0165 15.1828 43.4089C15.1875 43.4137 15.1875 43.4184 15.1922 43.4231C15.644 44.0236 16.2182 44.5201 16.8489 44.9315L22.1437 48.3691L21.9225 48.6339L20.9718 48.2178L19.8705 47.7307C19.5551 47.5936 19.2257 47.5274 18.9056 47.5274C18.3785 47.5274 17.8702 47.7024 17.456 48.0192C17.4466 48.0239 17.4372 48.0334 17.4278 48.0381C17.3807 48.0712 17.3384 48.109 17.296 48.1468C17.2631 48.1799 17.2301 48.2083 17.1972 48.2414C17.183 48.2556 17.1736 48.2698 17.1595 48.2792C16.9901 48.4589 16.8442 48.6622 16.7359 48.8987C16.7312 48.9081 16.7265 48.9176 16.7218 48.927C16.6983 48.979 16.6747 49.0311 16.6559 49.0831C16.6371 49.1256 16.623 49.1729 16.6088 49.2202C16.6041 49.2438 16.5947 49.2628 16.5853 49.2864C16.5853 49.2959 16.5806 49.3053 16.5806 49.31C16.43 49.8774 16.3312 50.4638 16.2888 51.0454C16.2794 51.192 16.2747 51.3385 16.27 51.4804C16.2653 51.627 16.27 51.7688 16.2747 51.9154C16.2841 52.2038 16.3123 52.4923 16.3547 52.776C16.4629 53.4852 16.6842 54.1709 17.0183 54.7856C17.0842 54.9085 17.1548 55.0314 17.2301 55.1449C17.3807 55.3813 17.5502 55.6036 17.7384 55.8069C18.482 56.6438 19.4987 57.216 20.6047 57.5706L21.1507 57.7456L20.1011 60.9278C20.0964 60.9467 20.0776 60.9562 20.0634 60.9562C20.0446 60.9562 20.0258 60.942 20.0211 60.9183L19.7669 58.7527C18.7833 58.3886 17.8325 57.8449 17.056 57.093C17.0513 57.0883 17.0418 57.0836 17.0371 57.0741C16.9242 56.9654 16.8159 56.8519 16.7124 56.7337C16.0394 55.9913 15.5593 55.0976 15.2628 54.1567C15.1404 53.769 15.0463 53.3765 14.9851 52.9793C14.778 51.6175 14.8957 50.2368 15.2392 48.9365C15.2722 48.8183 15.3051 48.6953 15.3428 48.5771C15.4134 48.3407 15.4934 48.1043 15.5828 47.8726C15.6581 47.674 15.7381 47.4801 15.8229 47.2863C15.8605 47.1964 15.9029 47.1066 15.9452 47.0215C16.0205 46.8607 16.1005 46.6999 16.1853 46.5439C16.2041 46.5061 16.2276 46.473 16.2464 46.4351C16.2935 46.3548 16.3359 46.2697 16.3876 46.1893L16.3217 46.1609L15.7664 45.6881C15.6158 45.7543 15.3522 45.8299 15.0839 45.8819C15.0322 45.8914 14.9757 45.9008 14.9239 45.9056C14.8157 45.9197 14.7121 45.9292 14.618 45.9292C14.458 45.9292 14.2885 45.9245 14.1144 45.9103C14.0297 45.9056 13.945 45.8961 13.8602 45.8867C13.7002 45.8677 13.5402 45.8488 13.3896 45.8252C13.2013 45.7968 13.0225 45.7637 12.8577 45.7306C12.7966 45.7164 12.7401 45.707 12.6836 45.6928C12.7071 45.8725 12.7165 46.0474 12.7165 46.2129C12.7165 46.298 12.7118 46.3784 12.7118 46.4588C12.6507 47.4376 12.2129 48.1516 11.5493 48.5771C11.507 48.6055 11.4646 48.6291 11.4223 48.6575C11.2999 48.7284 11.1728 48.7852 11.0363 48.8325C10.8386 48.9081 10.6268 48.9649 10.4056 49.0027C10.2221 49.0311 10.0291 49.0452 9.83144 49.0452H9.82203C9.42668 49.0452 9.01251 48.998 8.58892 48.8703C5.23316 47.8537 3.66589 43.8629 3.66589 43.8629C3.65177 44.104 3.68471 44.3877 3.74119 44.7045C3.76473 44.8322 3.79296 44.9646 3.82591 45.1017C3.85415 45.2199 3.8871 45.3382 3.92004 45.4611C4.1083 46.1467 4.37657 46.8843 4.6119 47.5463C4.83781 48.1752 5.0402 48.7332 5.12962 49.0973C5.94385 52.4828 7.28992 54.7477 8.65952 56.1095C8.94662 56.3932 9.24784 56.6297 9.53493 56.8661C11.5493 58.5447 14.6651 58.6629 14.6651 58.6629L9.57729 58.7102L9.28078 64.1857H7.86411L7.81234 56.885C5.94385 55.1875 4.60249 52.6814 3.8165 49.4093C3.75061 49.1256 3.56235 48.6102 3.36467 48.0617C2.734 46.3169 2.25864 44.8937 2.31511 43.7872L2.40925 42.0708C2.33394 41.8817 2.26334 41.6925 2.20216 41.5034C2.19274 41.475 2.17392 41.4325 2.15509 41.3757C1.54324 39.7633 0.860796 37.4417 2.00448 35.9475L2.13627 35.7725C2.48926 35.3044 2.82342 34.8599 3.37879 34.5573C3.96711 34.2358 4.56954 34.0703 5.16257 34.0703C5.72735 34.0703 6.2686 34.2169 6.74396 34.5006C6.20271 32.8456 6.13211 31.6493 6.4851 30.7036C6.81926 29.8147 7.60996 29.1149 8.41478 28.4907L8.45243 28.4624L8.49008 28.434C8.69246 28.2969 8.91838 28.1834 9.19136 28.0841C9.3702 28.0179 9.53964 27.9848 9.6526 27.9611L9.67613 27.9564C9.74673 27.9375 9.82203 27.9233 9.91146 27.9091C10.0291 27.8949 10.128 27.8902 10.1938 27.8902H10.2315L10.2692 27.8855C10.3492 27.8808 10.4245 27.876 10.5045 27.876H10.528H10.5515H10.5892H10.6127C10.7728 27.8808 10.9422 27.8949 11.1493 27.928C11.1963 27.9328 11.2481 27.9375 11.2999 27.947C11.587 27.9942 11.8976 28.0746 12.2271 28.1834L12.2506 28.1928L12.26 28.1976C12.5 28.278 12.7542 28.3773 13.0366 28.5049C12.8201 26.8121 12.6836 24.8262 12.7683 22.7079C12.7919 22.1121 12.9236 21.5399 13.1448 21.0103L12.8107 19.6769C11.9635 16.3197 11.5823 14.5371 11.5446 12.8632C11.5399 12.5748 11.5634 12.2911 11.6105 12.0121L11.2575 10.8253C10.5139 8.29558 10.1656 3.61443 13.592 2.08241C14.2415 1.79398 15.0604 1.61903 15.7852 1.61903C17.1595 1.61903 18.162 2.26209 18.4585 3.34491C19.4751 7.00945 20.7082 17.7288 20.7318 19.2561L21.1742 28.4198C21.4848 28.1266 21.7907 27.8524 22.0872 27.6065C22.6991 24.1926 23.1274 22.5187 23.7957 20.8921C24.1205 20.1072 24.5111 19.4121 24.9582 18.8164L24.9865 17.6957C25.0665 14.6695 25.5748 12.2958 25.9843 10.8348C26.1396 10.2815 26.3796 9.77085 26.6855 9.30747L26.7373 7.9835C26.7467 7.7329 27.0103 1.89328 31.0202 1.36842C31.2697 1.33532 31.4956 1.33059 31.6697 1.33059H31.6745H31.6792C33.6041 1.33059 34.8514 2.42286 35.0161 4.24804C35.0255 4.36625 35.0349 4.48446 35.0349 4.61213C35.0443 4.82018 35.0349 5.03769 35.0114 5.26465Z" fill="white"/>
<path d="M6.28761 35.8193C6.18406 35.7342 6.06169 35.6585 5.92991 35.5923C5.84048 35.5498 5.74635 35.512 5.64752 35.4883C5.54868 35.4599 5.44043 35.441 5.33218 35.4316C5.2757 35.4268 5.21922 35.4221 5.16274 35.4221C5.07803 35.4221 4.99331 35.4268 4.90389 35.441C4.85682 35.4458 4.81446 35.4552 4.7674 35.4647C4.71092 35.4741 4.64973 35.493 4.59325 35.5072C4.41441 35.5592 4.22614 35.6349 4.02847 35.7437C3.98611 35.7673 3.94375 35.7909 3.9061 35.8193C3.65665 35.999 3.44957 36.278 3.18129 36.6326C3.14835 36.6752 3.1154 36.7224 3.07775 36.765C2.88008 37.0251 2.78124 37.3608 2.74829 37.7296C2.72005 38.0464 2.74359 38.3869 2.80007 38.7273C2.96479 39.8007 3.41662 40.8598 3.48722 41.0631C3.82609 42.0987 4.36263 43.0349 4.9886 43.9428C5.12509 44.1461 5.27099 44.3447 5.41219 44.548C5.51573 44.6899 5.61928 44.8364 5.72753 44.9783C5.81225 45.0965 5.89696 45.21 5.98639 45.3235C6.16994 45.5693 6.3535 45.8152 6.53705 46.0658C6.5747 46.1131 6.61236 46.1604 6.6453 46.2077C6.67354 46.2408 6.69707 46.2786 6.72531 46.3117C6.81944 46.4299 6.91357 46.5481 7.0077 46.6569C7.05948 46.7184 7.11125 46.7751 7.16773 46.8366C7.7984 47.5269 8.42908 47.9667 9.05975 48.0376C9.20565 48.0612 9.34214 48.0707 9.47863 48.0707C10.114 48.0707 10.627 47.8248 10.9612 47.4702C10.9659 47.4655 10.9706 47.4607 10.9753 47.456C11.0694 47.352 11.1495 47.2432 11.2153 47.125C11.253 47.0588 11.2812 46.9926 11.3095 46.9217C11.3377 46.8555 11.3565 46.7846 11.3707 46.7136C11.526 46.0138 11.1683 45.2478 10.0858 44.9452C10.034 44.931 9.98223 44.9168 9.93046 44.9121C9.87869 44.9026 9.82692 44.9026 9.77514 44.9026C9.68101 44.9026 9.58688 44.9121 9.49746 44.9357C9.26684 44.9877 9.04093 45.1012 8.83384 45.2431C8.79148 45.2715 8.75383 45.2998 8.71147 45.3329C8.43849 45.5362 8.20316 45.7869 8.03373 45.9949C8.00549 46.0327 7.97725 46.0658 7.95372 46.0989L7.62897 45.9334L7.40776 45.82C7.45953 45.7159 7.54896 45.5504 7.70427 45.3282C7.7984 45.1911 7.92077 45.0303 8.07609 44.8459C8.0855 44.8364 8.09491 44.8223 8.10433 44.8128C8.24082 44.6568 8.39613 44.4818 8.58439 44.2927C7.61955 43.7111 6.7912 42.9971 6.42409 41.8764C6.32526 41.5691 6.25937 41.2334 6.23583 40.8598C6.22642 40.7369 6.22642 40.6092 6.22642 40.4768C6.22642 40.3444 6.23583 40.2073 6.24525 40.0654C6.25466 39.9709 6.27349 39.8716 6.29231 39.7676C6.31584 39.6635 6.33938 39.5548 6.37232 39.4413C6.40527 39.3278 6.44763 39.2143 6.49469 39.1008C6.51823 39.0441 6.54646 38.9826 6.57 38.9259C6.62648 38.8077 6.68766 38.6895 6.76296 38.576C6.80062 38.5192 6.83827 38.4578 6.88063 38.401C7.003 38.2261 7.15361 38.0559 7.32304 37.8951C7.49718 37.7343 7.69486 37.5783 7.92077 37.4364C7.90195 37.4033 7.87841 37.3702 7.85017 37.3324C7.49248 36.8123 6.73473 36.1787 6.28761 35.8193Z" fill="white"/>
<path d="M62.4033 46.1756L55.4659 30.2644H47.8743L59.6124 55.5332H65.199L76.9371 30.2644H69.3455L62.4033 46.1756Z" fill="white"/>
<path d="M124.139 29.5168C116.42 29.5168 110.165 35.5078 110.165 42.8983C110.165 50.2889 116.42 56.2845 124.139 56.2845C130.107 56.2845 135.199 52.7004 137.2 47.6551H129.523C128.187 49.0453 126.266 49.9153 124.134 49.9153C120.793 49.9153 117.978 47.7733 117.098 44.8464H137.957C138.056 44.2081 138.108 43.5556 138.108 42.8936C138.108 41.9385 138.004 41.007 137.807 40.1085C136.47 34.0561 130.86 29.5168 124.139 29.5168ZM117.413 40.1133C118.538 37.6214 121.127 35.8813 124.139 35.8813C127.151 35.8813 129.74 37.6261 130.865 40.1133H117.413Z" fill="white"/>
<path d="M94.3514 29.517C91.5698 29.517 88.9906 30.3728 86.8539 31.8386V22.2825L80.0059 24.4623V55.5376H86.5244L86.5479 53.7408C88.7412 55.339 91.4286 56.2894 94.3467 56.2894C101.703 56.2894 107.671 50.2985 107.671 42.9032C107.671 35.5079 101.712 29.517 94.3514 29.517ZM93.7442 49.8776C89.9084 49.8776 86.7974 46.7521 86.7974 42.8985C86.7974 39.0448 89.9084 35.9193 93.7442 35.9193C97.58 35.9193 100.691 39.0448 100.691 42.8985C100.691 46.7521 97.58 49.8776 93.7442 49.8776Z" fill="white"/>
<path d="M154.948 36.2553V30.2643H147.963V22.2307L140.979 24.4578V42.8987C140.979 50.294 146.288 56.2802 154.021 56.2802H154.953V49.9157C151.089 49.9157 147.968 46.7808 147.968 42.8987V36.2553H154.948Z" fill="white"/>
</svg>
